<?xml version="1.0" encoding="utf-8"?>
<svg viewBox="0 0 500 100" xmlns="http://www.w3.org/2000/svg">
  <defs>
    <linearGradient id="bladeGradA" x1="0%" y1="0%" x2="100%" y2="100%">
      <stop offset="0" stop-color="#93C5FD"/>
      <stop offset="0.5" stop-color="#60A5FA"/>
      <stop offset="1" stop-color="#4B8EF5"/>
    </linearGradient>
    <linearGradient id="bladeGradB" x1="100%" y1="0%" x2="0%" y2="100%">
      <stop offset="0" stop-color="#7FB4FA"/>
      <stop offset="0.5" stop-color="#5599F7"/>
      <stop offset="1" stop-color="#3E82EE"/>
    </linearGradient>
    <radialGradient id="starGrad" cx="50%" cy="50%" r="65%">
      <stop offset="0" stop-color="#FFFFFF"/>
      <stop offset="0.55" stop-color="#FFFFFF"/>
      <stop offset="1" stop-color="#EAF2FF"/>
    </radialGradient>
    <radialGradient id="coreGlow" cx="50%" cy="50%" r="50%">
      <stop offset="0" stop-color="#FFFFFF" stop-opacity="1"/>
      <stop offset="0.6" stop-color="#EFF6FF" stop-opacity="0.9"/>
      <stop offset="1" stop-color="#DBEAFE" stop-opacity="0"/>
    </radialGradient>
  </defs>
  <g id="lumen-icon" transform="matrix(0.192544, 0, 0, 0.192544, 85.715569, 3.956517)">
    <path d="M 250.00,40.00 L 431.87,145.00 L 431.87,355.00 L 250.00,460.00 L 68.13,355.00 L 68.13,145.00 Z" fill="#60A5FA" stroke="#FFFFFF" stroke-width="6" stroke-linejoin="round"/>
    <path d="M 250.00,40.00 L 351.84,98.80 Q 386.39,187.56 329.09,211.42 Q 260.63,190.95 250.00,40.00 Z" fill="url(#bladeGradA)" stroke="#ffffff" stroke-width="4" stroke-linejoin="round"/>
    <path d="M 431.87,145.00 L 431.87,262.60 Q 372.27,336.89 322.96,299.21 Q 306.45,229.68 431.87,145.00 Z" fill="url(#bladeGradB)" stroke="#ffffff" stroke-width="4" stroke-linejoin="round"/>
    <path d="M 431.87,355.00 L 330.02,413.80 Q 235.88,399.33 243.86,337.79 Q 295.83,288.73 431.87,355.00 Z" fill="url(#bladeGradA)" stroke="#ffffff" stroke-width="4" stroke-linejoin="round"/>
    <path d="M 250.00,460.00 L 148.16,401.20 Q 113.61,312.44 170.91,288.58 Q 239.37,309.05 250.00,460.00 Z" fill="url(#bladeGradB)" stroke="#ffffff" stroke-width="4" stroke-linejoin="round"/>
    <path d="M 68.13,355.00 L 68.13,237.40 Q 127.73,163.11 177.04,200.79 Q 193.55,270.32 68.13,355.00 Z" fill="url(#bladeGradA)" stroke="#ffffff" stroke-width="4" stroke-linejoin="round"/>
    <path d="M 68.13,145.00 L 169.98,86.20 Q 264.12,100.67 256.14,162.21 Q 204.17,211.27 68.13,145.00 Z" fill="url(#bladeGradB)" stroke="#ffffff" stroke-width="4" stroke-linejoin="round"/>
    <circle cx="250" cy="250" r="130" fill="url(#coreGlow)"/>
    <path d="M 251.18,252.54 L 246.22,242.95 L 152.80,41.55 L 247.03,242.57 Z" fill="url(#starGrad)"/>
    <path d="M 249.28,252.70 L 251.66,242.17 L 313.41,13.35 L 252.47,242.39 Z" fill="url(#starGrad)"/>
    <path d="M 246.86,249.73 L 259.00,250.08 L 399.43,263.07 L 258.88,251.49 Z" fill="url(#starGrad)"/>
    <path d="M 249.35,246.92 L 252.56,258.63 L 277.03,377.16 L 251.17,258.92 Z" fill="url(#starGrad)"/>
    <path d="M 252.85,248.67 L 242.13,254.36 L 141.24,300.71 L 241.60,253.23 Z" fill="url(#starGrad)"/>
    <path d="M 252.42,251.40 L 242.81,246.49 L 167.73,202.50 L 243.37,245.53 Z" fill="url(#starGrad)"/>
    <path d="M 247.88,251.22 L 255.73,245.98 L 310.62,215.00 L 256.34,247.04 Z" fill="url(#starGrad)"/>
    <path d="M 251.22,247.88 L 247.04,256.34 L 220.00,301.96 L 245.98,255.73 Z" fill="url(#starGrad)"/>
    <circle cx="250" cy="250" r="9" fill="#FFFFFF"/>
  </g>
  <g transform="matrix(1, 0, 0, 1, -77.89019, -7.58633)">
    <text x="268" y="82" font-size="50" font-weight="300" letter-spacing=".08em" style="fill: rgb(250, 249, 245); stroke: none; color: rgb(255, 255, 255); stroke-width: 1px; stroke-linecap: butt; stroke-linejoin: miter; opacity: 1; font-family: &quot;Cormorant Garamond&quot;, Georgia, serif; font-size: 50px; font-weight: 300; text-anchor: start; dominant-baseline: auto; white-space: pre;">L</text>
    <text x="304" y="82" font-size="40" font-weight="300" letter-spacing=".22em" style="fill: rgb(250, 249, 245); stroke: none; color: rgb(255, 255, 255); stroke-width: 1px; stroke-linecap: butt; stroke-linejoin: miter; opacity: 1; font-family: &quot;Cormorant Garamond&quot;, Georgia, serif; font-size: 40px; font-weight: 300; text-anchor: start; dominant-baseline: auto; white-space: pre;">UMEN</text>
  </g>
</svg>